<svg width="160" height="96" viewBox="0 0 160 96" fill="none" xmlns="http://www.w3.org/2000/svg">
  <path d="M18 16H142L118 80H18V16Z" fill="#0FAAFF"/>
  <path d="M39.8 58.8C43.4 58.8 45.5 57.5 45.5 55.2C45.5 53 43.6 52.3 39.4 51.4C33.7 50.2 28.2 48.5 28.2 41.8C28.2 35.2 33.4 31.2 41.1 31.2C46.4 31.2 50.8 32.6 54.3 35.3L49.6 40.9C46.6 38.8 43.5 37.8 40.6 37.8C37.4 37.8 35.8 39.2 35.8 41.1C35.8 43.4 38 44 42.2 44.9C48.5 46.2 53.2 48.3 53.2 54.3C53.2 61.6 47.7 65.4 39.6 65.4C34 65.4 28.5 63.5 24.5 60L29.7 54.3C33.2 57.1 36.7 58.8 39.8 58.8Z" fill="white"/>
  <path d="M59.4 31.9H74.1C83 31.9 88.4 36.5 88.4 44.5C88.4 53.4 81.5 57.9 73.3 57.9H67.3V64.7H59.4V31.9ZM73.6 50.9C77.7 50.9 80.1 48.4 80.1 45C80.1 41 77.3 39 73.4 39H67.3V50.9H73.6Z" fill="white"/>
  <path d="M98.9 31.7H106.2L120.2 64.7H111.9L108.9 57.4H95L92 64.7H83.9L98.9 31.7ZM106.2 50.4L101.8 39.6L97.4 50.4H106.2Z" fill="white"/>
</svg>
